<svg xmlns="http://www.w3.org/2000/svg" viewBox="0 0 337 337"><defs><style>.cls-1{fill:#f7f2f7;}.cls-2{fill:#fff;}.cls-3{fill:#e34641;}.cls-4{fill:#f4c39f;}.cls-5{fill:#e5a57a;}.cls-6{fill:#233686;}.cls-7{fill:#374ea4;}.cls-8{fill:#87510a;}.cls-9{fill:#edb996;}.cls-10{fill:#eaeef1;}.cls-11{fill:#59350b;}.cls-12{fill:#c48b65;}</style></defs><title>Asset 10</title><g id="Layer_2" data-name="Layer 2"><g id="Layer_1-2" data-name="Layer 1"><circle class="cls-1" cx="168.5" cy="168.5" r="168.5"/><path class="cls-2" d="M272.67,285.24c-2.37-17.2-11.86-65.24-22.83-71s-32.32-18.19-32.32-18.19l-49-20.57-49,20.57s-21.35,12.47-32.32,18.19S66.7,268,64.33,285.24s54.74,42.7,104.17,42.7S275.05,302.44,272.67,285.24Z"/><path class="cls-3" d="M184.15,217.27h-31.3l-4.37,10.06,3.44,2s6,12,7.92,15.24a6.75,6.75,0,0,0,2.54,2.25,12.57,12.57,0,0,0,12.24,0,6.75,6.75,0,0,0,2.54-2.25c1.9-3.19,7.92-15.24,7.92-15.24l3.44-2Z"/><path class="cls-4" d="M168.5,156.19H141.84s2.28,22.29,3.43,36,23.23,29.72,23.23,29.72,22.09-16,23.23-29.72,3.43-36,3.43-36Z"/><path class="cls-5" d="M195.16,156.19H153.38l-11.09,4.47c.43,4.31,1.12,11.19,1.77,18.14,1.61,1.68,13.77,13.93,27.38,15.42,7.56.82,14.7-1.35,20.48-4.25C193.11,176.2,195.16,156.19,195.16,156.19Z"/><path class="cls-6" d="M64.33,285.24c-2.12,15.33,43,37.25,87.86,41.84a185.56,185.56,0,0,1-12.48-30.67C131.85,271,123.65,211,123.65,211l2.45-13.17-6.62-1.75s-21.35,12.47-32.32,18.19S66.7,268,64.33,285.24Z"/><path class="cls-7" d="M139.71,296.41C131.85,271,123.65,211,123.65,211l2.45-13.17-6.62-1.75-4.2,2.44s-9.79,28.5-9.9,34.15c-.06,3.17,6.37,11,6.37,11s-3.07,13.17-3.89,17.85c-.66,3.72,9.64,37.43,23.28,62.13a192.59,192.59,0,0,0,21.05,3.37A185.56,185.56,0,0,1,139.71,296.41Z"/><path class="cls-6" d="M272.67,285.24c2.12,15.33-43,37.25-87.86,41.84a185.56,185.56,0,0,0,12.48-30.67c7.86-25.4,16.06-85.4,16.06-85.4l-2.45-13.17,6.62-1.75s21.35,12.47,32.32,18.19S270.3,268,272.67,285.24Z"/><path class="cls-7" d="M197.29,296.41c7.86-25.4,16.06-85.4,16.06-85.4l-2.45-13.17,6.62-1.75,4.2,2.44s9.79,28.5,9.9,34.15c.06,3.17-6.37,11-6.37,11s3.07,13.17,3.89,17.85c.66,3.72-9.64,37.43-23.28,62.13a192.59,192.59,0,0,1-21.05,3.37A185.56,185.56,0,0,0,197.29,296.41Z"/><path class="cls-8" d="M126.34,71s-5.83-10.79-2.69-17,27.56-24,61.16-23.12S220.93,51,213.35,80.27s-61.16,40-61.16,40Z"/><path class="cls-8" d="M222.64,106.58s4-31,3.14-35.54-4-9.45-12.43-9.9-7.58,48.37-7.58,48.37l14.68,3.23Z"/><path class="cls-8" d="M114.36,106.58s-4-31-3.14-35.54,4-9.45,12.43-9.9,7.58,48.37,7.58,48.37l-14.68,3.23Z"/><path class="cls-4" d="M126,111.64s-4.8-6.67-11.59-5.06-5.63,20.73-2.22,27,8.11,9.75,14.7,2.67S126,111.64,126,111.64Z"/><path class="cls-9" d="M211.05,111.64s4.8-6.67,11.59-5.06,5.63,20.73,2.22,27-8.11,9.75-14.7,2.67S211.05,111.64,211.05,111.64Z"/><path class="cls-4" d="M123.65,92.19h0q0,10.44.71,20.87c.58,8.53,1.48,20.28,2.59,29.54,2,16.5,16.19,30.66,24.33,36.61a29.32,29.32,0,0,0,34.44,0c8.14-6,22.35-20.11,24.33-36.61,1.11-9.26,2-21,2.59-29.54q.72-10.43.71-20.87h0A43.59,43.59,0,0,0,169.76,48.6h-2.52A43.59,43.59,0,0,0,123.65,92.19Z"/><path class="cls-9" d="M195.89,57.3a2.83,2.83,0,0,0-.73.28c-1.22.89-6.11,4-6.11,4L172.16,87s17.8-.06,25.13-3.62c0,0,6.88,37.36,5.55,56s-10.22,33.32-17.12,39.79c8.14-6,22.35-20.11,24.33-36.61,1.11-9.26,2-21,2.59-29.54q.72-10.43.71-20.87h0A43.52,43.52,0,0,0,195.89,57.3Z"/><path class="cls-8" d="M219.44,86.94c-.3-2.12-3.61-7.82-3.61-7.82L201.67,58.64,184.81,43.58H171l-2.45,4.84-2.45-4.84H152.19L135.33,58.64,121.17,79.12s-3.31,5.7-3.61,7.82,6.09,22.3,6.09,22.3,4.15-.91,6.86-7.23,6-23.5,6-23.5,18.38,9.34,28.31,12h0a13.89,13.89,0,0,0,7.24,0h0c9.93-2.71,28.31-12,28.31-12s3.31,17.17,6,23.5,6.86,7.23,6.86,7.23S219.74,89.05,219.44,86.94Z"/><path class="cls-10" d="M193.12,178.61s9.89,4.33,14.33,7,8.58,7.12,10.07,8-6.69,30.25-24.4,53.67c-.81-2.07-12.08-27-16.23-32.62C176.89,214.66,189.48,197.71,193.12,178.61Z"/><path class="cls-10" d="M181.1,221.92s-1.88-2.26-4.21-2.26-8.39,2.26-8.39,2.26,7.66-5.67,10.69-10.62,6.64,3.41,6.64,3.41Z"/><path class="cls-10" d="M143.88,178.61s-9.89,4.33-14.33,7-8.58,7.12-10.07,8,6.69,30.25,24.4,53.67c.81-2.07,12.08-27,16.23-32.62C160.11,214.66,147.52,197.71,143.88,178.61Z"/><path class="cls-10" d="M155.9,221.92s1.88-2.26,4.21-2.26,8.39,2.26,8.39,2.26-7.66-5.67-10.69-10.62-6.64,3.41-6.64,3.41Z"/><path class="cls-3" d="M181.42,327.39a46.57,46.57,0,0,0,2-9.47c.34-9.53-7.39-73.34-7.39-73.34l-7.28-3h0l-7.29,3s-7.73,63.81-7.39,73.34a47.14,47.14,0,0,0,2,9.51c4.18.33,8.35.51,12.46.51C172.77,327.94,177.09,327.75,181.42,327.39Z"/><path class="cls-11" d="M159.66,108.71c-.14.47-.77.72-1.62.82-.42,0-.92.1-1.44.14-.25,0-.52,0-.79,0l-.83.06c-2.23.12-4.56.37-5.1.46s-3,.34-5.4.74-4.69.79-5.11-.09,1.53-2.46,3.91-3.5a23.7,23.7,0,0,1,3.52-1.24,18.48,18.48,0,0,1,2.2-.45,20.72,20.72,0,0,1,6.07.3l1,.21c.31.09.62.2.91.3a8,8,0,0,1,1.52.7C159.32,107.71,159.79,108.23,159.66,108.71Z"/><circle class="cls-11" cx="151.88" cy="120.82" r="4.87"/><path class="cls-11" d="M177.26,108.39c-.14-.47.33-1,1.16-1.46a7.1,7.1,0,0,1,1.49-.64l.89-.27c.3-.08.62-.13.94-.19a20.85,20.85,0,0,1,5.91-.19,23.9,23.9,0,0,1,5.95,1.53c2.5,1,4.6,2.51,4.17,3.41s-2.69.54-5.05.27c-1.17-.16-2.37-.29-3.33-.4l-2-.2c-.53-.07-2.93-.46-5.26-.66l-.86-.09-.84-.06c-.54,0-1.06-.14-1.51-.19C178.06,109.13,177.39,108.87,177.26,108.39Z"/><circle class="cls-11" cx="185.12" cy="120.82" r="4.87"/><path class="cls-5" d="M169.8,141.34c-2.79,0-7-2.37-7-2.37a13.28,13.28,0,0,0,4,3.83,5.53,5.53,0,0,0,6.05,0,13.4,13.4,0,0,0,4-3.83S172.6,141.34,169.8,141.34Z"/><path class="cls-12" d="M169.11,157a20.32,20.32,0,0,1-12.9-4.76.8.8,0,1,1,1.09-1.18,19.12,19.12,0,0,0,12.47,4.32h.07a19,19,0,0,0,12.47-4.32.8.8,0,1,1,1.09,1.18A20.31,20.31,0,0,1,169.8,157Z"/></g></g></svg>