<svg xmlns="http://www.w3.org/2000/svg" viewBox="0 0 337 337"><defs><style>.cls-1{fill:#f7f2f7;}.cls-2{fill:#3c2415;}.cls-3{fill:#e8b491;}.cls-4{fill:#f4c39f;}.cls-5{fill:#eadb92;}.cls-6{fill:#e5a57a;}.cls-7{fill:#59350b;}.cls-8{fill:#c48b65;}.cls-9{fill:#d6c57f;}.cls-10{fill:#fff;}.cls-11{fill:#603913;}.cls-12{fill:#774018;}</style></defs><title>Asset 8</title><g id="Layer_2" data-name="Layer 2"><g id="Layer_1-2" data-name="Layer 1"><circle class="cls-1" cx="168.5" cy="168.5" r="168.5"/><path class="cls-2" d="M213.49,63.51s5-7.94,4.14-13.21-8.8-2.17-8.8-2.17S183.25,28.27,154,37.37,121.9,62.45,120.83,76.59,213.49,63.51,213.49,63.51Z"/><path class="cls-2" d="M113.27,108.64s-7-35.3,4.53-45.31,31.33,0,31.33,0l-10.3,48.44Z"/><path class="cls-2" d="M224.15,108.64s7-35.3-4.53-45.31-31.34,0-31.34,0l10.3,48.44Z"/><path class="cls-3" d="M211.05,111.49s4.8-6.67,11.59-5.06,5.63,20.73,2.22,27-8.11,9.74-14.7,2.66S211.05,111.49,211.05,111.49Z"/><path class="cls-4" d="M126,111.49s-4.8-6.67-11.59-5.06-5.63,20.73-2.22,27,8.11,9.74,14.7,2.66S126,111.49,126,111.49Z"/><path class="cls-5" d="M269.12,254.06c-4.68-21.35-17-40-35-45.69s-42.25-17.45-42.25-17.45L168.5,198,145,191s-24.16,11.77-42.17,17.42-30.3,24.34-35,45.69A219.36,219.36,0,0,0,63.67,284c-.59,8,3.83,15.69,11.45,19.77,16.27,8.71,48.51,22,93.38,22s77.11-13.32,93.38-22c7.62-4.08,12-11.73,11.45-19.77A219.36,219.36,0,0,0,269.12,254.06Z"/><path class="cls-4" d="M168.66,155.72H142s2.28,22.29,3.43,36,23.23,38.38,23.23,38.38,22.09-24.67,23.23-38.38,3.43-36,3.43-36Z"/><path class="cls-6" d="M195.32,155.72H153.54l-11.09,4.47c.43,4.31,1.12,11.18,1.77,18.14,1.61,1.67,13.77,13.93,27.38,15.41,7.56.83,14.7-1.34,20.48-4.25C193.27,175.72,195.32,155.72,195.32,155.72Z"/><path class="cls-4" d="M123.81,91.72h0q0,10.44.71,20.87c.58,8.53,1.48,20.28,2.59,29.53,2,16.5,16.19,30.67,24.33,36.62a29.36,29.36,0,0,0,34.44,0c8.14-6,22.35-20.12,24.33-36.62,1.11-9.25,2-21,2.59-29.53q.72-10.43.71-20.87h0a43.58,43.58,0,0,0-43.59-43.59H167.4A43.58,43.58,0,0,0,123.81,91.72Z"/><path class="cls-7" d="M159.82,112c-.13.48-.77.72-1.62.83-.42,0-.91.1-1.43.14l-.8,0-.83.06c-2.23.11-4.56.37-5.1.46s-3,.34-5.4.74-4.69.79-5.11-.09,1.53-2.46,3.91-3.5a22.61,22.61,0,0,1,3.52-1.24,18.48,18.48,0,0,1,2.2-.45,21,21,0,0,1,6.08.29l1,.22c.31.09.62.2.91.3a7.69,7.69,0,0,1,1.52.69C159.48,111,160,111.52,159.82,112Z"/><circle class="cls-7" cx="152.05" cy="124.11" r="4.87"/><circle class="cls-7" cx="185.28" cy="124.11" r="4.87"/><path class="cls-8" d="M170,143.55c-2.79,0-7-2.37-7-2.37a13.28,13.28,0,0,0,4,3.83,5.53,5.53,0,0,0,6.05,0,13.4,13.4,0,0,0,4-3.83S172.76,143.55,170,143.55Z"/><path class="cls-7" d="M177.42,111.68c-.13-.47.33-1,1.16-1.46a7.34,7.34,0,0,1,1.49-.64c.29-.09.58-.19.89-.27s.62-.13.94-.19a20.85,20.85,0,0,1,5.91-.19,23.73,23.73,0,0,1,5.95,1.52c2.5,1,4.6,2.51,4.17,3.42s-2.69.53-5.05.27c-1.17-.16-2.37-.29-3.33-.41l-2-.19c-.53-.08-2.93-.47-5.25-.66l-.87-.1-.84-.06c-.54,0-1.06-.13-1.51-.18C178.22,112.41,177.55,112.16,177.42,111.68Z"/><path class="cls-9" d="M167.24,221.2l-9.6,1.48-1.54,4.07c2.77.37,5.77.78,6.73,1,1.9.38,5.77,5.21,5.77,5.21S169.12,225.23,167.24,221.2Z"/><path class="cls-10" d="M145.24,189.48s-6,2.87-15.32,8.4c0,0,6.11,11.16,12.08,20s14.93,16.45,14.93,16.45,3.12-10.38,10.31-13.14C152.55,211.49,145.24,189.48,145.24,189.48Z"/><path class="cls-9" d="M170.08,221.2l9.61,1.48,1.53,4.07c-2.77.37-5.77.78-6.72,1-1.91.38-5.9,5.21-5.9,5.21S168.2,225.23,170.08,221.2Z"/><path class="cls-10" d="M192.08,189.48s6,2.87,15.32,8.4c0,0-6.11,11.16-12.08,20s-14.93,16.45-14.93,16.45S177.27,224,170.08,221.2C184.77,211.49,192.08,189.48,192.08,189.48Z"/><path class="cls-8" d="M169.88,158.74a17.74,17.74,0,0,1-9.61-2.67.81.81,0,1,1,.93-1.32,15.15,15.15,0,0,0,5.15,2,19.15,19.15,0,0,0,12.91-2.06.81.81,0,1,1,.74,1.44A21.88,21.88,0,0,1,169.88,158.74Z"/><path class="cls-2" d="M124.29,108.87s4.77-16.87,12-23.56,46.88-11,56.44-8.61l8.14-10.88-5.5,12.79s18.19,5.52,17.69,30.71a104.36,104.36,0,0,0,4.51-20.66c1-10.4-3.68-37.33-43.33-44S108.51,72,124.29,108.87Z"/><path class="cls-11" d="M123.43,321.1c-.27-13.4-.38-33.77.48-56.31,1.53-39.71,6-66.91,6-66.91a284,284,0,0,1-27.06,10.49c-18,5.65-30.3,24.34-35,45.69A219.36,219.36,0,0,0,63.67,284c-.59,8,3.83,15.69,11.45,19.77A185.44,185.44,0,0,0,123.43,321.1Z"/><path class="cls-11" d="M213.57,321.1c.27-13.4.38-33.77-.48-56.31-1.53-39.71-6-66.91-6-66.91a284,284,0,0,0,27.06,10.49c18,5.65,30.3,24.34,35,45.69A219.36,219.36,0,0,1,273.33,284c.59,8-3.83,15.69-11.45,19.77A185.44,185.44,0,0,1,213.57,321.1Z"/><path class="cls-12" d="M102.92,240.73c-1.85,3.69,4.43,20.3,4.43,20.3s-4,14.76-4.77,18.08c-.53,2.29,4.76,25,8.08,38.82,4,1.14,8.28,2.21,12.77,3.17-.27-13.4-.38-33.77.48-56.31,1.53-39.71,6-66.91,6-66.91-3,1.31-6.24,2.7-9.6,4.07h0S104.76,237,102.92,240.73Z"/><path class="cls-12" d="M234.08,240.73c1.85,3.69-4.43,20.3-4.43,20.3s4,14.76,4.77,18.08c.53,2.29-4.76,25-8.08,38.82-4,1.14-8.28,2.21-12.77,3.17.27-13.4.38-33.77-.48-56.31-1.53-39.71-6-66.91-6-66.91,3,1.31,6.24,2.7,9.6,4.07h0S232.24,237,234.08,240.73Z"/></g></g></svg>