<svg xmlns="http://www.w3.org/2000/svg" viewBox="0 0 75.35 70.85"><defs><style>.cls-1{fill:#00b4d8;}</style></defs><title>Asset 7</title><g id="Layer_2" data-name="Layer 2"><g id="Layer_1-2" data-name="Layer 1"><path class="cls-1" d="M0,8.86A8.86,8.86,0,0,1,8.86,0H44.28a8.86,8.86,0,0,1,8.86,8.86V62a8.86,8.86,0,0,1-8.86,8.86H8.86A8.86,8.86,0,0,1,0,62ZM8.86,6.64A2.23,2.23,0,0,0,6.64,8.86V62a2.23,2.23,0,0,0,2.22,2.22H19.93V55.35a6.64,6.64,0,0,1,13.28,0v8.86H44.28A2.22,2.22,0,0,0,46.49,62V8.86a2.22,2.22,0,0,0-2.21-2.22Zm3.32,7.75a2.21,2.21,0,0,1,2.21-2.21H21a2.22,2.22,0,0,1,2.22,2.21V21A2.23,2.23,0,0,1,21,23.25H14.39A2.22,2.22,0,0,1,12.18,21Zm0,17.71a2.22,2.22,0,0,1,2.21-2.21H21a2.23,2.23,0,0,1,2.22,2.21v6.65A2.23,2.23,0,0,1,21,41H14.39a2.22,2.22,0,0,1-2.21-2.21ZM32.1,12.18h6.65A2.22,2.22,0,0,1,41,14.39V21a2.23,2.23,0,0,1-2.21,2.22H32.1A2.23,2.23,0,0,1,29.89,21V14.39A2.22,2.22,0,0,1,32.1,12.18Zm0,17.71h6.65A2.22,2.22,0,0,1,41,32.1v6.65A2.22,2.22,0,0,1,38.75,41H32.1a2.22,2.22,0,0,1-2.21-2.21V32.1A2.22,2.22,0,0,1,32.1,29.89Z"/><path class="cls-1" d="M22.21,8.86A8.87,8.87,0,0,1,31.07,0H66.49a8.86,8.86,0,0,1,8.86,8.86V62a8.86,8.86,0,0,1-8.86,8.86H31.07A8.87,8.87,0,0,1,22.21,62Zm8.86-2.22a2.22,2.22,0,0,0-2.21,2.22V62a2.22,2.22,0,0,0,2.21,2.22H42.14V55.35a6.64,6.64,0,1,1,13.28,0v8.86H66.49A2.23,2.23,0,0,0,68.71,62V8.86a2.23,2.23,0,0,0-2.22-2.22Zm3.32,7.75a2.22,2.22,0,0,1,2.22-2.21h6.64a2.21,2.21,0,0,1,2.21,2.21V21a2.22,2.22,0,0,1-2.21,2.22H36.61A2.23,2.23,0,0,1,34.39,21Zm0,17.71a2.23,2.23,0,0,1,2.22-2.21h6.64a2.22,2.22,0,0,1,2.21,2.21v6.65A2.22,2.22,0,0,1,43.25,41H36.61a2.23,2.23,0,0,1-2.22-2.21ZM54.32,12.18H61a2.21,2.21,0,0,1,2.21,2.21V21A2.22,2.22,0,0,1,61,23.25H54.32A2.23,2.23,0,0,1,52.1,21V14.39A2.22,2.22,0,0,1,54.32,12.18Zm0,17.71H61a2.22,2.22,0,0,1,2.21,2.21v6.65A2.22,2.22,0,0,1,61,41H54.32a2.23,2.23,0,0,1-2.22-2.21V32.1A2.23,2.23,0,0,1,54.32,29.89Z"/></g></g></svg>