<svg xmlns="http://www.w3.org/2000/svg" viewBox="0 0 337 337"><defs><style>.cls-1{fill:#f7f2f7;}.cls-2{fill:#59350b;}.cls-3{fill:#694b9c;}.cls-4{fill:#8d76ce;}.cls-5{fill:#f4c39f;}.cls-6{fill:#e5a57a;}.cls-7{fill:#edb996;}.cls-8{fill:#c48b65;}</style></defs><title>Asset 9</title><g id="Layer_2" data-name="Layer 2"><g id="Layer_1-2" data-name="Layer 1"><circle class="cls-1" cx="168.5" cy="168.5" r="168.5"/><path class="cls-2" d="M218.58,60.89C202.54,35.58,168.5,36,168.5,36s-34-.42-50.08,24.89c-13.92,22-2.89,59.18-2.89,59.18H221.47S232.5,82.86,218.58,60.89Z"/><path class="cls-3" d="M272.67,287.05c-2.37-17.19-11.86-65.23-22.83-71s-32.32-18.2-32.32-18.2l-49-20.56-49,20.56s-21.35,12.47-32.32,18.2-20.46,53.76-22.83,71,54.74,42.71,104.17,42.71S275.05,304.25,272.67,287.05Z"/><path class="cls-4" d="M200.36,203.29a28.58,28.58,0,0,0,2.08-8.38c.09-1,.18-2.1.28-3.22L168.5,177.34l-34.22,14.35c.1,1.12.19,2.19.28,3.22a28.27,28.27,0,0,0,2.08,8.38,34.52,34.52,0,0,0,63.72,0Z"/><path class="cls-5" d="M168.5,158H141.84s2.28,22.29,3.43,36a17.83,17.83,0,0,0,1.32,5.21c7.9,19.39,35.92,19.39,43.82,0a17.83,17.83,0,0,0,1.32-5.21c1.15-13.72,3.43-36,3.43-36Z"/><path class="cls-6" d="M195.16,158H153.38l-11.09,4.47c.43,4.31,1.12,11.18,1.77,18.14,1.61,1.67,13.77,13.93,27.38,15.41,7.56.83,14.7-1.34,20.48-4.25C193.11,178,195.16,158,195.16,158Z"/><path class="cls-5" d="M126,113.45s-4.8-6.67-11.59-5-5.63,20.73-2.22,27,8.11,9.74,14.7,2.66S126,113.45,126,113.45Z"/><path class="cls-7" d="M211.05,113.45s4.8-6.67,11.59-5,5.63,20.73,2.22,27-8.11,9.74-14.7,2.66S211.05,113.45,211.05,113.45Z"/><path class="cls-5" d="M123.65,94h0q0,10.44.71,20.87c.58,8.53,1.48,20.28,2.59,29.53,2,16.5,16.19,30.67,24.33,36.62a29.36,29.36,0,0,0,34.44,0c8.14-5.95,22.35-20.12,24.33-36.62,1.11-9.25,2-21,2.59-29.53q.72-10.42.71-20.87h0a43.58,43.58,0,0,0-43.59-43.59h-2.52A43.58,43.58,0,0,0,123.65,94Z"/><path class="cls-7" d="M195.89,59.12a2.5,2.5,0,0,0-.73.28c-1.22.89-6.11,4-6.11,4L172.16,88.82s17.8-.07,25.13-3.63c0,0,6.88,37.37,5.55,56.05S192.62,174.56,185.72,181c8.14-5.95,22.35-20.12,24.33-36.62,1.11-9.25,2-21,2.59-29.53q.72-10.42.71-20.87h0A43.52,43.52,0,0,0,195.89,59.12Z"/><path class="cls-2" d="M159.66,110.52c-.14.47-.77.72-1.62.83-.42,0-.92.1-1.44.13l-.79,0-.83.06c-2.23.11-4.56.36-5.1.45s-3,.35-5.4.75-4.69.79-5.11-.09,1.53-2.46,3.91-3.5a22.88,22.88,0,0,1,3.51-1.24,18.91,18.91,0,0,1,2.21-.45,20.66,20.66,0,0,1,6.08.29l1,.22c.31.09.62.2.91.3a7.39,7.39,0,0,1,1.52.69C159.32,109.53,159.79,110.05,159.66,110.52Z"/><circle class="cls-2" cx="151.88" cy="122.64" r="4.87" transform="translate(-2.47 242.15) rotate(-76.67)"/><path class="cls-2" d="M177.26,110.21c-.14-.48.33-1,1.16-1.46a6.61,6.61,0,0,1,1.49-.64l.89-.28.94-.19a20.72,20.72,0,0,1,5.91-.18A23.73,23.73,0,0,1,193.6,109c2.5,1,4.6,2.51,4.17,3.41s-2.69.54-5.05.27l-3.33-.4-2-.19c-.53-.08-2.93-.47-5.26-.67-.29,0-.58-.05-.86-.09l-.84-.06c-.54,0-1.06-.14-1.51-.18C178.06,110.94,177.39,110.68,177.26,110.21Z"/><circle class="cls-2" cx="185.12" cy="122.64" r="4.87" transform="translate(-32.5 166.82) rotate(-45)"/><path class="cls-6" d="M168.5,144.35c-2.79,0-7-2.37-7-2.37a13.29,13.29,0,0,0,4,3.83,5.52,5.52,0,0,0,6,0,13.29,13.29,0,0,0,4-3.83S171.29,144.35,168.5,144.35Z"/><path class="cls-8" d="M169.27,158.82l-.7,0a20.36,20.36,0,0,1-13.6-4.74.82.82,0,0,1,0-1.14.81.81,0,0,1,1.14,0,18.88,18.88,0,0,0,12.47,4.32h.06a18.82,18.82,0,0,0,12.47-4.32.81.81,0,0,1,1.09,1.19A20.27,20.27,0,0,1,169.27,158.82Z"/><path class="cls-2" d="M210.23,65.56C196.87,44.47,168.5,44.82,168.5,44.82s-28.37-.35-41.73,20.74c-11.61,18.3-2.41,49.32-2.41,49.32s8.62-12.15,10.1-27.74a114.42,114.42,0,0,0,34,5.73,114.42,114.42,0,0,0,34-5.73c1.48,15.59,10.1,27.74,10.1,27.74S221.84,83.86,210.23,65.56Z"/></g></g></svg>